<?xml version="1.0" ?><svg id="Layer_1" style="enable-background:new 0 0 512 512;" version="1.1" viewBox="0 0 512 512" xml:space="preserve" xmlns="http://www.w3.org/2000/svg" xmlns:xlink="http://www.w3.org/1999/xlink"><style type="text/css">
	.st0{fill:#EE927F;}
	.st1{fill:#F5C7A9;}
	.st2{fill:#485143;}
	.st3{fill:#737E6D;}
	.st4{fill:#C4C0AB;}
	.st5{fill:#FFFFFF;}
	.st6{fill:#ECEAE0;}
	.st7{fill:#E67368;}
	.st8{fill:#DB332A;}
	.st9{fill:#FBDBBF;}
	.st10{fill:#E47469;}
</style><g id="XMLID_1_"><g id="XMLID_4649_"><path class="st0" d="M366.6,245.5h39.3c21.7,0,39.3-17.6,39.3-39.3v0c0-21.7-17.6-39.3-39.3-39.3h-39.3V245.5z" id="XMLID_1595_"/><path class="st0" d="M146.8,245.5h-39.3c-21.7,0-39.3-17.6-39.3-39.3v0c0-21.7,17.6-39.3,39.3-39.3h39.3V245.5z" id="XMLID_1594_"/><path class="st1" d="M256.7,379.5L256.7,379.5c-71.1,0-128.8-57.6-128.8-128.8v-89.5    c0-71.1,57.6-128.8,128.8-128.8h0c71.1,0,128.8,57.6,128.8,128.8v89.5C385.5,321.9,327.8,379.5,256.7,379.5z" id="XMLID_1593_"/><path class="st2" d="M356.6,72.1L356.6,72.1l0,58.5c0,20.1,16.3,36.4,36.4,36.4h13v-45.5    C405.9,94.2,383.8,72.1,356.6,72.1z" id="XMLID_1586_"/><path class="st2" d="M165.5,23.8h25.7v84.6c0,32.4-26.2,58.6-58.6,58.6h-25.7V82.4    C106.9,50.1,133.1,23.8,165.5,23.8z" id="XMLID_1585_"/><path class="st3" d="M165.5,23.8h25.7v60.9c0,32.4-26.2,58.6-58.6,58.6h-25.7V82.4    C106.9,50.1,133.1,23.8,165.5,23.8z" id="XMLID_2374_"/><path class="st4" d="M165.5,24C133.2,24,107,50.2,107,82.5V167h0c11.6,0,21-9.4,21-21V83.9    c0-21.5,17.4-38.9,38.9-38.9h3.1c11.6,0,21-9.4,21-21v0H165.5z" id="XMLID_2377_"/><path class="st2" d="M321.4,5H210.3c-10.6,0-19.2,8.6-19.2,19.2v91.2c0,13.2,10.7,23.9,23.9,23.9h190.8V89.4    C405.9,42.8,368.1,5,321.4,5z" id="XMLID_1584_"/><path class="st3" d="M272.1,5h-61.8c-10.6,0-19.2,8.6-19.2,19.2V96c0,13.2,10.7,23.9,23.9,23.9h111    c16.9,0,30.5-13.7,30.5-30.5v0C356.6,42.8,318.8,5,272.1,5z" id="XMLID_2370_"/><g id="XMLID_1338_"><circle class="st5" cx="401.3" cy="401.3" id="XMLID_1419_" r="105.7"/><path class="st4" d="M447.4,306.2c6.8,13.9,10.6,29.6,10.6,46.1c0,58.4-47.3,105.7-105.7,105.7     c-16.5,0-32.2-3.8-46.1-10.6c17.1,35.3,53.3,59.6,95.1,59.6c58.4,0,105.7-47.3,105.7-105.7C507,359.5,482.7,323.4,447.4,306.2z" id="XMLID_1418_"/><circle class="st6" cx="401.3" cy="401.3" id="XMLID_1351_" r="85.2"/><polygon class="st7" id="XMLID_1349_" points="451.1,378.9 424.1,351.9 401,375 377.9,351.9 350.9,378.9 374,402 350.9,425.1      377.9,452.1 401,429 424.1,452.1 451.1,425.1 428,402    "/><path class="st8" d="M451.1,378.9l-19.3-19.3c-10.2,35.3-38.3,63.1-73.9,72.7l19.8,19.8L401,429l23.1,23.1     l27-27L428,402L451.1,378.9z" id="XMLID_1339_"/></g><path class="st0" d="M240.8,254.3l-15.5-2.3c-15.3-2.3-30.7,2.7-41.7,13.6l-42.4,41.9c21,42.7,64.9,72,115.6,72h0    c9.9,0,19.5-1.1,28.7-3.2l1.6-3.8c3.5-8.4,4.6-17.6,3.1-26.6l-8.3-51c-1.6-10.1-6.4-19.5-13.7-26.8l0,0    C260.7,260.7,251.1,255.9,240.8,254.3z" id="XMLID_620_"/><path class="st9" d="M257.8,345.4l-64.6,64.6l72.4-81c4.9-5.5,4.7-13.8-0.5-19l0,0c-5.4-5.4-14.2-5.4-19.6,0    l-76.2,76.2l86.3-92.5c4.6-4.9,4.5-12.6-0.3-17.4h0c-4.8-4.8-12.4-4.9-17.4-0.3l-92.5,86.3l76.4-76.4c5.3-5.3,5.3-13.9,0-19.2h0    c-5.1-5.1-13.2-5.3-18.6-0.6l-81.6,72.3l-24.4,24.4l2.8-35.2V326c0-16.6-13.4-30-30-30h0v23.8l-9,25.3l-18.3,52.5l0.2,59.3L0,500    v12h138.8l17.3-17.3l60.8-60.8l59.4-71.5c4.2-5,3.8-12.4-0.8-17v0C270.7,340.5,262.7,340.5,257.8,345.4z" id="XMLID_1580_"/><path class="st1" d="M97.2,362.9L97.2,362.9l2.8-35.2V326c0-9-3.9-17-10.2-22.5l-2.3,21.3L81,339.5l-3.2,42.8    L97.2,362.9L97.2,362.9z" id="XMLID_2236_"/><g id="XMLID_2180_"><path class="st3" d="M204.5,199.4c-8.1,0-16.2-2.4-23.3-7.3l5.6-8.3c10.7,7.3,24.6,7.3,35.4,0l5.6,8.3     C220.7,197,212.6,199.4,204.5,199.4z" id="XMLID_2187_"/></g><g id="XMLID_2179_"><rect class="st3" height="10" id="XMLID_2186_" width="31" x="209" y="224"/></g><g id="XMLID_2178_"><path class="st3" d="M308.5,199.4c-8.1,0-16.2-2.4-23.3-7.3l5.6-8.3c10.7,7.3,24.6,7.3,35.4,0l5.6,8.3     C324.7,197,316.6,199.4,308.5,199.4z" id="XMLID_2185_"/></g><g id="XMLID_2177_"><path class="st10" d="M408.1,229.3c-9.7-14.2-9.7-32.5,0-46.6l8.3,5.6c-7.3,10.7-7.3,24.6,0,35.4L408.1,229.3z" id="XMLID_2184_"/></g><g id="XMLID_2176_"><path class="st10" d="M104.7,229.3l-8.3-5.6c7.3-10.7,7.3-24.6,0-35.4l8.3-5.6     C114.4,196.8,114.4,215.1,104.7,229.3z" id="XMLID_2183_"/></g><g id="XMLID_2175_"><rect class="st3" height="10" id="XMLID_2182_" width="31" x="272" y="224"/></g><path class="st1" d="M145.5,362.5L145.5,362.5l2.2-2.1L145.5,362.5l76.4-76.5c5.2-5.2,5.3-13.7,0.2-19h-0.2    l-76.2,74.2C139.6,347,139.5,356.6,145.5,362.5z" id="XMLID_2234_"/><path class="st1" d="M169.3,386.2l86.3-92.5c4.6-4.9,4.5-12.6-0.3-17.4L168.8,368    C163.9,373.2,164.2,381.3,169.3,386.2L169.3,386.2z" id="XMLID_2227_"/><path class="st1" d="M265.1,310L193,388.5c-5.6,6.1-5.6,15.6,0.1,21.6h0l72.4-81    C270.5,323.6,270.2,315.2,265.1,310z" id="XMLID_2228_"/><path class="st1" d="M119,476.4l-26.4-6L60.1,512h78.7l17.3-17.3l60.8-60.8l59.4-71.5c4.2-5,3.8-12.4-0.8-17    l-72.1,89.1l-26.4,25.6C161.8,475,139.9,481.1,119,476.4z" id="XMLID_2229_"/></g></g></svg>