<?xml version="1.0" encoding="iso-8859-1"?>
<!-- Generator: Adobe Illustrator 20.0.0, SVG Export Plug-In . SVG Version: 6.00 Build 0)  -->
<svg version="1.1" id="Layer_1_1_" xmlns="http://www.w3.org/2000/svg" xmlns:xlink="http://www.w3.org/1999/xlink" x="0px" y="0px"
	 viewBox="0 0 64 64" style="enable-background:new 0 0 64 64;" xml:space="preserve">
<g id="Guide">
	<g>
	</g>
	<g>
	</g>
	<g>
	</g>
	<g>
	</g>
	<g>
	</g>
	<g>
	</g>
	<g>
	</g>
	<g>
	</g>
	<g>
	</g>
	<g>
	</g>
	<g>
	</g>
	<g>
	</g>
	<g>
	</g>
	<g>
	</g>
	<g>
	</g>
	<g>
	</g>
	<g>
	</g>
	<g>
	</g>
	<g>
	</g>
	<g>
	</g>
	<g>
	</g>
	<g>
	</g>
	<g>
	</g>
	<g>
	</g>
	<g>
	</g>
	<g>
	</g>
	<g>
	</g>
	<g>
	</g>
	<g>
	</g>
	<g>
	</g>
	<g>
	</g>
	<g>
	</g>
	<g>
	</g>
	<g>
	</g>
	<g>
	</g>
	<g>
	</g>
</g>
<path d="M5,51h29v-2H5c-1.654,0-3-1.346-3-3V18c0-1.654,1.346-3,3-3h46v-2H5c-2.757,0-5,2.243-5,5v28C0,48.757,2.243,51,5,51z"/>
<path d="M59,13h-2.324l1.226-2.569l-1.805-0.861l-21,44l1.805,0.861L38.54,51H59c2.757,0,5-2.243,5-5V18C64,15.243,61.757,13,59,13z
	 M53.812,19h1.314c0.363,1.403,1.47,2.511,2.874,2.873v20.254c-1.404,0.362-2.511,1.47-2.874,2.873H41.403L53.812,19z M62,46
	c0,1.654-1.346,3-3,3H39.494l0.955-2H56c0.552,0,1-0.447,1-1c0-1.103,0.897-2,2-2c0.552,0,1-0.447,1-1V21c0-0.553-0.448-1-1-1
	c-1.103,0-2-0.897-2-2c0-0.553-0.448-1-1-1h-1.233l0.955-2H59c1.654,0,3,1.346,3,3V46z"/>
<path d="M49,17H8c-0.552,0-1,0.447-1,1c0,1.103-0.897,2-2,2c-0.552,0-1,0.447-1,1v22c0,0.553,0.448,1,1,1c1.103,0,2,0.897,2,2
	c0,0.553,0.448,1,1,1h28v-2H8.874C8.511,43.597,7.404,42.489,6,42.127V21.873c1.404-0.362,2.511-1.47,2.874-2.873H49V17z"/>
<path d="M21,32c0,6.065,4.935,11,11,11s11-4.935,11-11s-4.935-11-11-11S21,25.935,21,32z M23,32c0-4.625,3.507-8.442,8-8.941V25
	c-2.206,0-4,1.794-4,4s1.794,4,4,4h2c1.103,0,2,0.897,2,2s-0.897,2-2,2h-2c-1.103,0-2-0.897-2-2h-2c0,2.206,1.794,4,4,4v1.941
	C26.507,40.442,23,36.625,23,32z M41,32c0,4.625-3.507,8.442-8,8.941V39c2.206,0,4-1.794,4-4s-1.794-4-4-4h-2c-1.103,0-2-0.897-2-2
	s0.897-2,2-2h2c1.103,0,2,0.897,2,2h2c0-2.206-1.794-4-4-4v-1.941C37.493,23.558,41,27.375,41,32z"/>
<path d="M27.242,1.363c-0.685,0.106-1.38,0.238-2.065,0.392l0.438,1.951c0.642-0.144,1.292-0.267,1.934-0.366L27.242,1.363z"/>
<path d="M37.702,1.524l-0.364,1.967c0.632,0.117,1.277,0.26,1.918,0.425l0.498-1.938C39.069,1.803,38.379,1.65,37.702,1.524z"/>
<path d="M33.532,1.037l-0.098,1.998c0.657,0.032,1.316,0.086,1.96,0.161l0.231-1.986C34.938,1.13,34.233,1.071,33.532,1.037z"/>
<path d="M41.771,2.572l-0.632,1.898c0.626,0.208,1.246,0.438,1.843,0.683l0.76-1.85C43.103,3.041,42.439,2.795,41.771,2.572z"/>
<path d="M23.141,2.286c-0.674,0.2-1.346,0.426-1.995,0.669l0.702,1.873c0.606-0.228,1.233-0.438,1.863-0.626L23.141,2.286z"/>
<path d="M45.657,4.167l-0.883,1.795c0.582,0.286,1.165,0.598,1.734,0.927l1.002-1.73C46.902,4.807,46.279,4.473,45.657,4.167z"/>
<path d="M31.43,1.005c-0.698,0.013-1.404,0.05-2.099,0.108l0.168,1.992c0.652-0.055,1.314-0.089,1.968-0.101L31.43,1.005z"/>
<path d="M49.292,6.271l-1.117,1.66c0.536,0.36,1.072,0.749,1.592,1.152l1.228-1.578C50.438,7.072,49.865,6.657,49.292,6.271z"/>
<path d="M15.503,5.755c-0.594,0.374-1.179,0.771-1.74,1.181l1.179,1.615c0.524-0.383,1.072-0.754,1.627-1.104L15.503,5.755z"/>
<path d="M12.108,8.229c-0.536,0.449-1.062,0.921-1.565,1.403l1.385,1.443c0.47-0.451,0.963-0.894,1.464-1.313L12.108,8.229z"/>
<path d="M19.203,3.76c-0.635,0.288-1.269,0.603-1.884,0.935l0.949,1.76c0.575-0.31,1.168-0.604,1.762-0.874L19.203,3.76z"/>
<path d="M52.61,8.85l-1.332,1.492c0.493,0.439,0.972,0.896,1.425,1.358l1.428-1.4C53.647,9.807,53.135,9.319,52.61,8.85z"/>
<path d="M32.57,62.995c0.698-0.013,1.404-0.05,2.099-0.108l-0.168-1.992c-0.652,0.055-1.314,0.089-1.968,0.101L32.57,62.995z"/>
<path d="M52.072,52.924c-0.47,0.451-0.963,0.894-1.464,1.313l1.284,1.533c0.536-0.449,1.062-0.921,1.565-1.403L52.072,52.924z"/>
<path d="M42.152,59.172c-0.606,0.228-1.233,0.438-1.863,0.626l0.57,1.916c0.674-0.2,1.346-0.426,1.995-0.669L42.152,59.172z"/>
<path d="M45.732,57.546c-0.575,0.31-1.168,0.604-1.762,0.874l0.827,1.82c0.635-0.288,1.269-0.603,1.884-0.935L45.732,57.546z"/>
<path d="M38.386,60.294c-0.642,0.144-1.292,0.267-1.934,0.366l0.307,1.977c0.685-0.106,1.38-0.238,2.065-0.392L38.386,60.294z"/>
<path d="M49.058,55.449c-0.524,0.383-1.072,0.754-1.627,1.104l1.066,1.691c0.594-0.374,1.179-0.771,1.74-1.181L49.058,55.449z"/>
<path d="M18.343,59.833l0.883-1.795c-0.582-0.286-1.165-0.598-1.734-0.927l-1.002,1.73C17.098,59.193,17.721,59.527,18.343,59.833z"
	/>
<path d="M22.229,61.428l0.632-1.898c-0.626-0.208-1.246-0.438-1.843-0.683l-0.76,1.85C20.897,60.959,21.561,61.205,22.229,61.428z"
	/>
<path d="M26.298,62.476l0.364-1.967c-0.632-0.117-1.277-0.26-1.918-0.425l-0.498,1.938C24.931,62.197,25.621,62.35,26.298,62.476z"
	/>
<path d="M30.468,62.963l0.098-1.998c-0.657-0.032-1.316-0.086-1.96-0.161l-0.231,1.986C29.062,62.87,29.767,62.929,30.468,62.963z"
	/>
<path d="M14.708,57.729l1.117-1.66c-0.536-0.36-1.072-0.749-1.592-1.152l-1.228,1.578C13.562,56.928,14.135,57.343,14.708,57.729z"
	/>
<path d="M11.39,55.15l1.332-1.492c-0.493-0.439-0.972-0.896-1.425-1.358L9.87,53.7C10.353,54.193,10.865,54.681,11.39,55.15z"/>
</svg>
