<?xml version="1.0" ?><svg xmlns="http://www.w3.org/2000/svg" xmlns:xlink="http://www.w3.org/1999/xlink" version="1.0" viewBox="0 0 48 48" enable-background="new 0 0 48 48" xml:space="preserve"><g id="Layer_1"/><g id="_x32_0_x5F_Credit_x5F_Score"><path d="M41.875,41c0,0.553-0.447,1-1,1H36c-0.553,0-1-0.447-1-1s0.447-1,1-1h3.844C39.326,31.711,32.417,25.125,24,25.125   c-8.417,0-15.326,6.586-15.844,14.875H12c0.552,0,1,0.447,1,1s-0.448,1-1,1H7.125c-0.552,0-1-0.447-1-1   c0-9.856,8.019-17.875,17.875-17.875S41.875,31.144,41.875,41z M25,30v-2c0-0.553-0.448-1-1-1s-1,0.447-1,1v2c0,0.553,0.448,1,1,1   S25,30.553,25,30z M27.875,34.163c-0.479-0.276-1.09-0.112-1.366,0.366l-2.586,4.478C22.856,39.049,22,39.924,22,41   c0,0.553,0.448,1,1,1h2c0.553,0,1-0.447,1-1c0-0.388-0.116-0.748-0.308-1.055l2.549-4.416   C28.518,35.051,28.354,34.439,27.875,34.163z M31,28.875c-0.479-0.276-1.09-0.112-1.366,0.366l-1,1.732   c-0.276,0.479-0.112,1.09,0.366,1.366c0.157,0.091,0.329,0.134,0.499,0.134c0.346,0,0.682-0.18,0.867-0.5l1-1.732   C31.643,29.763,31.479,29.151,31,28.875z M36.125,34c-0.277-0.479-0.891-0.643-1.366-0.366l-1.732,1   C32.548,34.91,32.384,35.521,32.66,36c0.186,0.32,0.521,0.5,0.867,0.5c0.17,0,0.342-0.043,0.499-0.134l1.732-1   C36.237,35.09,36.401,34.479,36.125,34z M18.366,29.241c-0.277-0.478-0.888-0.644-1.366-0.366   c-0.478,0.276-0.642,0.888-0.366,1.366l1,1.732c0.186,0.32,0.521,0.5,0.867,0.5c0.169,0,0.341-0.043,0.499-0.134   c0.478-0.276,0.642-0.888,0.366-1.366L18.366,29.241z M14.974,34.634l-1.732-1c-0.478-0.276-1.09-0.113-1.366,0.366   c-0.276,0.479-0.112,1.09,0.366,1.366l1.732,1c0.157,0.091,0.33,0.134,0.499,0.134c0.346,0,0.682-0.179,0.867-0.5   C15.616,35.521,15.452,34.91,14.974,34.634z M16,13c0-4.411,3.589-8,8-8s8,3.589,8,8s-3.589,8-8,8S16,17.411,16,13z M18,13   c0,3.309,2.691,6,6,6s6-2.691,6-6s-2.691-6-6-6S18,9.691,18,13z"/></g></svg>